HIERARCHY
ROOT Joint1
{
	OFFSET 0.000000 0.000000 0.000000
	CHANNELS 6 Xposition Yposition Zposition Xrotation Yrotation Zrotation
	JOINT Joint2
	{
		OFFSET -0.000000 0.000000 1.456275
		CHANNELS 6 Xposition Yposition Zposition Xrotation Yrotation Zrotation
		JOINT Joint3
		{
			OFFSET -0.000000 0.000002 1.471446
			CHANNELS 6 Xposition Yposition Zposition Xrotation Yrotation Zrotation
			JOINT Joint4
			{
				OFFSET 0.625745 0.000000 0.917755
				CHANNELS 6 Xposition Yposition Zposition Xrotation Yrotation Zrotation
				JOINT Joint5
				{
					OFFSET -0.629534 0.000001 0.940221
					CHANNELS 6 Xposition Yposition Zposition Xrotation Yrotation Zrotation
					JOINT Joint6
					{
						OFFSET -0.000001 0.113772 1.960660
						CHANNELS 6 Xposition Yposition Zposition Xrotation Yrotation Zrotation
						JOINT Joint7
						{
							OFFSET -0.669733 -0.113771 0.388340
							CHANNELS 6 Xposition Yposition Zposition Xrotation Yrotation Zrotation
							End Site
							{
								OFFSET 0.005509 0.005509 0.438980
							}
						}
					}
				}
			}
		}
	}
}
MOTION
Frames: 9
Frame Time: 0.041667
0.000000 0.000000 0.000000 -0.000000 1.019410 31.119677 -0.000000 0.000000 1.456275 -0.000001 -16.101911 -0.000001 -0.000000 0.000002 1.471446 -0.000002 -1.133455 51.654071 0.625744 0.000000 0.917755 0.000000 58.580463 0.000002 -0.629534 0.000001 0.940221 -0.000002 1.709739 97.438154 -0.000001 0.113772 1.960661 -88.303882 11.595031 -0.000001 -0.669733 -0.113770 0.388339 -0.490603 3.543228 122.791966 
0.000000 0.000000 0.000000 -0.000000 1.019410 31.100713 -0.000000 0.000000 1.456275 -0.000001 -16.119504 -0.000001 -0.000000 0.000002 1.471446 -0.000002 -1.133456 51.622580 0.625745 0.000000 0.917755 -0.000002 58.627045 0.000000 -0.629533 0.000001 0.940221 -0.000001 1.709739 97.378765 -0.000001 0.113772 1.960661 -88.303889 11.642790 -0.000001 -0.669733 -0.113772 0.388340 -0.490734 3.543256 122.799384 
0.000000 0.000000 0.000000 -0.000000 1.019410 31.068751 -0.000000 0.000000 1.456275 -0.000000 -16.149146 -0.000000 -0.000000 0.000002 1.471446 -0.000001 -1.133456 51.569516 0.625745 0.000000 0.917755 -0.000001 58.705517 0.000002 -0.629534 0.000001 0.940221 -0.000002 1.709734 97.278730 -0.000001 0.113772 1.960661 -88.303889 11.723260 -0.000000 -0.669733 -0.113771 0.388340 -0.490945 3.543304 122.811869 
0.000000 0.000000 0.000000 -0.000000 1.019410 31.023518 -0.000000 0.000000 1.456275 -0.000000 -16.191107 -0.000000 -0.000000 0.000002 1.471446 -0.000002 -1.133454 51.494408 0.625745 0.000000 0.917755 -0.000002 58.816583 0.000000 -0.629533 0.000001 0.940221 -0.000001 1.709737 97.137134 -0.000001 0.113772 1.960661 -88.303889 11.837146 -0.000001 -0.669733 -0.113771 0.388339 -0.491254 3.543367 122.829546 
0.000000 0.000000 0.000000 -0.000000 1.019410 30.964734 -0.000000 0.000000 1.456275 0.000001 -16.245634 -0.000000 -0.000000 0.000002 1.471446 -0.000002 -1.133456 51.396805 0.625745 0.000000 0.917755 -0.000003 58.960939 0.000001 -0.629534 0.000001 0.940222 -0.000001 1.709732 96.953094 -0.000001 0.113772 1.960661 -88.303882 11.985169 -0.000001 -0.669733 -0.113771 0.388339 -0.491654 3.543456 122.852536 
0.000000 0.000000 0.000000 -0.000000 1.019410 30.892109 -0.000000 0.000000 1.456275 -0.000000 -16.313002 0.000002 -0.000000 0.000002 1.471446 -0.000001 -1.133454 51.276221 0.625744 0.000000 0.917755 -0.000001 59.139275 0.000001 -0.629534 0.000001 0.940221 -0.000001 1.709733 96.725738 -0.000001 0.113772 1.960661 -88.303889 12.168035 -0.000001 -0.669733 -0.113771 0.388340 -0.492146 3.543560 122.880950 
0.000000 0.000000 0.000000 -0.000000 1.019410 30.805366 -0.000000 -0.000000 1.456275 -0.000000 -16.393470 -0.000002 -0.000000 0.000002 1.471446 -0.000002 -1.133455 51.132179 0.625744 0.000000 0.917755 -0.000000 59.352274 0.000002 -0.629534 0.000001 0.940220 -0.000002 1.709739 96.454169 -0.000001 0.113772 1.960660 -88.303882 12.386457 -0.000000 -0.669733 -0.113771 0.388340 -0.492737 3.543690 122.914855 
0.000000 0.000000 0.000000 -0.000000 1.019410 30.704217 -0.000000 0.000000 1.456275 0.000000 -16.487298 -0.000004 -0.000000 0.000002 1.471445 -0.000001 -1.133455 50.964239 0.625745 0.000000 0.917755 -0.000004 59.600654 0.000001 -0.629534 0.000001 0.940220 -0.000000 1.709734 96.137515 -0.000001 0.113772 1.960661 -88.303882 12.641151 -0.000000 -0.669733 -0.113772 0.388339 -0.493421 3.543836 122.954388 
0.000000 0.000000 0.000000 -0.000000 1.019410 30.588381 -0.000000 -0.000000 1.456275 0.000000 -16.594747 0.000001 -0.000000 0.000002 1.471446 -0.000002 -1.133455 50.771900 0.625745 0.000000 0.917755 -0.000003 59.885091 0.000001 -0.629534 0.000001 0.940221 -0.000001 1.709733 95.774880 -0.000001 0.113772 1.960661 -88.303882 12.932821 -0.000000 -0.669733 -0.113771 0.388339 -0.494209 3.544001 122.999699 
